<svg width="24" height="24" viewBox="0 0 24 24" fill="none" xmlns="http://www.w3.org/2000/svg">
<path fill-rule="evenodd" clip-rule="evenodd" d="M11.707 4.29303C11.8945 4.48056 11.9998 4.73487 11.9998 5.00003C11.9998 5.26519 11.8945 5.5195 11.707 5.70703L6.414 11H20C20.2652 11 20.5196 11.1054 20.7071 11.2929C20.8946 11.4805 21 11.7348 21 12C21 12.2652 20.8946 12.5196 20.7071 12.7071C20.5196 12.8947 20.2652 13 20 13H6.414L11.707 18.293C11.8892 18.4816 11.99 18.7342 11.9877 18.9964C11.9854 19.2586 11.8802 19.5094 11.6948 19.6948C11.5094 19.8803 11.2586 19.9854 10.9964 19.9877C10.7342 19.99 10.4816 19.8892 10.293 19.707L3.293 12.707C3.10553 12.5195 3.00021 12.2652 3.00021 12C3.00021 11.7349 3.10553 11.4806 3.293 11.293L10.293 4.29303C10.4805 4.10556 10.7348 4.00024 11 4.00024C11.2652 4.00024 11.5195 4.10556 11.707 4.29303V4.29303Z" fill="black"/>
</svg>
