<svg width="24" height="24" viewBox="0 0 24 24" fill="none" xmlns="http://www.w3.org/2000/svg">
<path fill-rule="evenodd" clip-rule="evenodd" d="M9.293 1.29299C9.48049 1.10545 9.73481 1.00006 10 1H18C18.7956 1 19.5587 1.31605 20.1213 1.87864C20.6839 2.44122 21 3.20424 21 3.99985V8.9996C21 9.26481 20.8946 9.51915 20.7071 9.70667C20.5196 9.8942 20.2652 9.99955 20 9.99955C19.7348 9.99955 19.4804 9.8942 19.2929 9.70667C19.1054 9.51915 19 9.26481 19 8.9996V3.99985C19 3.73465 18.8946 3.48031 18.7071 3.29278C18.5196 3.10525 18.2652 2.9999 18 2.9999H11V7.99965C11 8.26486 10.8946 8.5192 10.7071 8.70672C10.5196 8.89425 10.2652 8.9996 10 8.9996H5V19.9991C5 20.2643 5.10536 20.5186 5.29289 20.7061C5.48043 20.8937 5.73478 20.999 6 20.999H9C9.26522 20.999 9.51957 21.1044 9.70711 21.2919C9.89464 21.4794 10 21.7338 10 21.999C10 22.2642 9.89464 22.5185 9.70711 22.706C9.51957 22.8936 9.26522 22.9989 9 22.9989H6C5.20435 22.9989 4.44129 22.6829 3.87868 22.1203C3.31607 21.5577 3 20.7947 3 19.9991V7.99965C3.00006 7.73447 3.10545 7.48017 3.293 7.29269L9.293 1.29299V1.29299ZM6.414 6.9997H9V4.41383L6.414 6.9997ZM18.707 12.2924L22.707 16.2922C22.8945 16.4798 22.9998 16.7341 22.9998 16.9992C22.9998 17.2644 22.8945 17.5187 22.707 17.7062L18.707 21.706C18.5184 21.8881 18.2658 21.9889 18.0036 21.9866C17.7414 21.9844 17.4906 21.8792 17.3052 21.6938C17.1198 21.5084 17.0146 21.2576 17.0123 20.9954C17.01 20.7332 17.1108 20.4806 17.293 20.292L20.586 16.9992L17.293 13.7064C17.1108 13.5178 17.01 13.2652 17.0123 13.003C17.0146 12.7408 17.1198 12.49 17.3052 12.3046C17.4906 12.1192 17.7414 12.0141 18.0036 12.0118C18.2658 12.0095 18.5184 12.1103 18.707 12.2924V12.2924ZM14.707 13.7064C14.8892 13.5178 14.99 13.2652 14.9877 13.003C14.9854 12.7408 14.8802 12.49 14.6948 12.3046C14.5094 12.1192 14.2586 12.0141 13.9964 12.0118C13.7342 12.0095 13.4816 12.1103 13.293 12.2924L9.293 16.2922C9.10553 16.4798 9.00021 16.7341 9.00021 16.9992C9.00021 17.2644 9.10553 17.5187 9.293 17.7062L13.293 21.706C13.4816 21.8881 13.7342 21.9889 13.9964 21.9866C14.2586 21.9844 14.5094 21.8792 14.6948 21.6938C14.8802 21.5084 14.9854 21.2576 14.9877 20.9954C14.99 20.7332 14.8892 20.4806 14.707 20.292L11.414 16.9992L14.707 13.7064V13.7064Z" fill="black"/>
</svg>
