<svg width="24" height="24" viewBox="0 0 24 24" fill="none" xmlns="http://www.w3.org/2000/svg">
<path fill-rule="evenodd" clip-rule="evenodd" d="M9.293 1.29299C9.48049 1.10545 9.73481 1.00006 10 1H18C18.7956 1 19.5587 1.31605 20.1213 1.87864C20.6839 2.44122 21 3.20424 21 3.99985V19.9991C21 20.7947 20.6839 21.5577 20.1213 22.1203C19.5587 22.6829 18.7956 22.9989 18 22.9989H6C5.20435 22.9989 4.44129 22.6829 3.87868 22.1203C3.31607 21.5577 3 20.7947 3 19.9991V7.99965C3.00006 7.73447 3.10545 7.48017 3.293 7.29269L9.293 1.29299V1.29299ZM18 2.9999H11V7.99965C11 8.26486 10.8946 8.5192 10.7071 8.70672C10.5196 8.89425 10.2652 8.9996 10 8.9996H5V19.9991C5 20.2643 5.10536 20.5186 5.29289 20.7061C5.48043 20.8937 5.73478 20.999 6 20.999H18C18.2652 20.999 18.5196 20.8937 18.7071 20.7061C18.8946 20.5186 19 20.2643 19 19.9991V3.99985C19 3.73465 18.8946 3.48031 18.7071 3.29278C18.5196 3.10525 18.2652 2.9999 18 2.9999V2.9999ZM6.414 6.9997H9V4.41383L6.414 6.9997ZM7 12.9994C7 12.7342 7.10536 12.4799 7.29289 12.2923C7.48043 12.1048 7.73478 11.9995 8 11.9995H16C16.2652 11.9995 16.5196 12.1048 16.7071 12.2923C16.8946 12.4799 17 12.7342 17 12.9994C17 13.2646 16.8946 13.5189 16.7071 13.7065C16.5196 13.894 16.2652 13.9994 16 13.9994H8C7.73478 13.9994 7.48043 13.894 7.29289 13.7065C7.10536 13.5189 7 13.2646 7 12.9994ZM7 16.9992C7 16.734 7.10536 16.4797 7.29289 16.2921C7.48043 16.1046 7.73478 15.9993 8 15.9993H16C16.2652 15.9993 16.5196 16.1046 16.7071 16.2921C16.8946 16.4797 17 16.734 17 16.9992C17 17.2644 16.8946 17.5188 16.7071 17.7063C16.5196 17.8938 16.2652 17.9992 16 17.9992H8C7.73478 17.9992 7.48043 17.8938 7.29289 17.7063C7.10536 17.5188 7 17.2644 7 16.9992Z" fill="black"/>
</svg>
