<svg width="24" height="24" viewBox="0 0 24 24" fill="none" xmlns="http://www.w3.org/2000/svg">
<path fill-rule="evenodd" clip-rule="evenodd" d="M19.707 5.707C19.8892 5.5184 19.9899 5.2658 19.9877 5.0036C19.9854 4.7414 19.8802 4.49059 19.6948 4.30518C19.5094 4.11977 19.2586 4.0146 18.9964 4.01233C18.7342 4.01005 18.4816 4.11084 18.293 4.293L14.032 8.553C13.268 8.10201 12.3758 7.9178 11.4957 8.02935C10.6155 8.14089 9.79749 8.54186 9.17017 9.16918C8.54285 9.79649 8.14189 10.6146 8.03034 11.4947C7.9188 12.3748 8.10301 13.267 8.55399 14.031L4.29299 18.293C4.19748 18.3852 4.1213 18.4956 4.06889 18.6176C4.01648 18.7396 3.9889 18.8708 3.98774 19.0036C3.98659 19.1364 4.01189 19.2681 4.06217 19.391C4.11245 19.5138 4.1867 19.6255 4.2806 19.7194C4.37449 19.8133 4.48614 19.8875 4.60904 19.9378C4.73193 19.9881 4.86361 20.0134 4.99639 20.0123C5.12917 20.0111 5.26039 19.9835 5.3824 19.9311C5.5044 19.8787 5.61474 19.8025 5.70699 19.707L9.96799 15.447C10.732 15.898 11.6242 16.0822 12.5043 15.9707C13.3844 15.8591 14.2025 15.4581 14.8298 14.8308C15.4571 14.2035 15.8581 13.3854 15.9696 12.5053C16.0812 11.6252 15.897 10.733 15.446 9.969L19.707 5.707V5.707ZM12.518 10.067C12.1788 9.97598 11.8216 9.97589 11.4824 10.0667C11.1431 10.1576 10.8338 10.3361 10.5854 10.5845C10.3371 10.8328 10.1585 11.1421 10.0677 11.4814C9.97688 11.8206 9.97697 12.1778 10.068 12.517L12.518 10.067ZM11.482 13.932L13.932 11.482C14.023 11.8212 14.0231 12.1784 13.9323 12.5176C13.8414 12.8569 13.6629 13.1662 13.4145 13.4145C13.1662 13.6629 12.8569 13.8414 12.5176 13.9323C12.1784 14.0231 11.8212 14.023 11.482 13.932V13.932ZM15.765 4.821C14.63 4.32 13.367 4 12 4C9.14799 4 6.75699 5.395 4.99799 6.906C3.23299 8.423 2.00799 10.138 1.46399 10.97C1.26302 11.2759 1.15594 11.634 1.15594 12C1.15594 12.366 1.26302 12.7241 1.46399 13.03C2.25823 14.2394 3.17946 15.3604 4.21199 16.374L5.62599 14.96C4.70919 14.0618 3.88936 13.0696 3.17999 12C3.68999 11.227 4.77799 9.732 6.30099 8.423C7.87399 7.072 9.81599 6 12 6C12.7549 6.00286 13.5044 6.12677 14.22 6.367L15.765 4.821ZM12 18C11.2451 17.9971 10.4956 17.8732 9.77999 17.633L8.23599 19.18C9.37199 19.68 10.634 20.001 12.001 20.001C14.853 20.001 17.244 18.606 19.003 17.095C20.768 15.578 21.993 13.863 22.537 13.031C22.948 12.403 22.948 11.6 22.537 10.971C21.7428 9.7616 20.8215 8.64057 19.789 7.627L18.374 9.04C19.2908 9.93822 20.1106 10.9303 20.82 12C20.31 12.773 19.222 14.268 17.699 15.577C16.126 16.928 14.184 18 12 18Z" fill="black"/>
</svg>
