<svg width="24" height="24" viewBox="0 0 24 24" fill="none" xmlns="http://www.w3.org/2000/svg">
<path fill-rule="evenodd" clip-rule="evenodd" d="M20.61 5.20699C20.7142 5.28706 20.8016 5.38688 20.8672 5.50074C20.9327 5.6146 20.9753 5.74027 20.9922 5.87057C21.0092 6.00087 21.0004 6.13324 20.9662 6.26011C20.932 6.38699 20.8731 6.50588 20.793 6.60999L10.793 19.61C10.7062 19.7228 10.5964 19.8157 10.4709 19.8826C10.3453 19.9496 10.2069 19.9889 10.0649 19.9981C9.92296 20.0073 9.78066 19.9861 9.64754 19.9359C9.51442 19.8857 9.39354 19.8076 9.29298 19.707L4.29298 14.707C4.11082 14.5184 4.01003 14.2658 4.01231 14.0036C4.01458 13.7414 4.11975 13.4906 4.30516 13.3052C4.49057 13.1198 4.74138 13.0146 5.00358 13.0123C5.26578 13.01 5.51838 13.1108 5.70698 13.293L9.90198 17.488L19.207 5.38999C19.287 5.2858 19.3869 5.19842 19.5007 5.13282C19.6146 5.06723 19.7403 5.02472 19.8706 5.00773C20.0009 4.99073 20.1332 4.99958 20.2601 5.03378C20.387 5.06797 20.5059 5.12683 20.61 5.20699V5.20699Z" fill="black"/>
</svg>
