<svg width="24" height="24" viewBox="0 0 24 24" fill="none" xmlns="http://www.w3.org/2000/svg">
<path fill-rule="evenodd" clip-rule="evenodd" d="M6.30099 15.577C4.77799 14.268 3.69099 12.773 3.17999 12C3.68999 11.227 4.77799 9.732 6.30099 8.423C7.87399 7.072 9.81599 6 12 6C14.184 6 16.126 7.072 17.699 8.423C19.222 9.732 20.309 11.227 20.82 12C20.31 12.773 19.222 14.268 17.699 15.577C16.126 16.928 14.184 18 12 18C9.81599 18 7.87399 16.928 6.30099 15.577ZM12 4C9.14799 4 6.75699 5.395 4.99799 6.906C3.23299 8.423 2.00799 10.138 1.46399 10.97C1.26302 11.2759 1.15594 11.634 1.15594 12C1.15594 12.366 1.26302 12.7241 1.46399 13.03C2.00799 13.862 3.23299 15.577 4.99799 17.094C6.75799 18.605 9.14799 20 12 20C14.852 20 17.243 18.605 19.002 17.094C20.767 15.577 21.992 13.862 22.536 13.03C22.947 12.402 22.947 11.599 22.536 10.97C21.992 10.138 20.767 8.423 19.002 6.906C17.242 5.395 14.852 4 12 4ZM9.99999 12C9.99999 11.4696 10.2107 10.9609 10.5858 10.5858C10.9609 10.2107 11.4696 10 12 10C12.5304 10 13.0391 10.2107 13.4142 10.5858C13.7893 10.9609 14 11.4696 14 12C14 12.5304 13.7893 13.0391 13.4142 13.4142C13.0391 13.7893 12.5304 14 12 14C11.4696 14 10.9609 13.7893 10.5858 13.4142C10.2107 13.0391 9.99999 12.5304 9.99999 12ZM12 8C10.9391 8 9.92171 8.42143 9.17157 9.17157C8.42142 9.92172 7.99999 10.9391 7.99999 12C7.99999 13.0609 8.42142 14.0783 9.17157 14.8284C9.92171 15.5786 10.9391 16 12 16C13.0609 16 14.0783 15.5786 14.8284 14.8284C15.5786 14.0783 16 13.0609 16 12C16 10.9391 15.5786 9.92172 14.8284 9.17157C14.0783 8.42143 13.0609 8 12 8V8Z" fill="black"/>
</svg>
