<svg width="24" height="24" viewBox="0 0 24 24" fill="none" xmlns="http://www.w3.org/2000/svg">
<path fill-rule="evenodd" clip-rule="evenodd" d="M12 2.9999C10.8181 2.9999 9.64778 3.23268 8.55585 3.68495C7.46392 4.13722 6.47177 4.80013 5.63604 5.63581C4.80031 6.4715 4.13738 7.46361 3.68508 8.55548C3.23279 9.64736 3 10.8176 3 11.9995C3 13.1813 3.23279 14.3516 3.68508 15.4435C4.13738 16.5353 4.80031 17.5274 5.63604 18.3631C6.47177 19.1988 7.46392 19.8617 8.55585 20.314C9.64778 20.7663 10.8181 20.999 12 20.999C14.3869 20.999 16.6761 20.0509 18.364 18.3631C20.0518 16.6754 21 14.3863 21 11.9995C21 9.61263 20.0518 7.32356 18.364 5.63581C16.6761 3.94807 14.3869 2.9999 12 2.9999V2.9999ZM1 11.9995C1 5.92476 5.925 1 12 1C18.075 1 23 5.92476 23 11.9995C23 18.0742 18.075 22.9989 12 22.9989C5.925 22.9989 1 18.0742 1 11.9995ZM13.25 16.7492C13.25 17.0807 13.1183 17.3987 12.8839 17.6331C12.6495 17.8675 12.3315 17.9992 12 17.9992C11.6685 17.9992 11.3505 17.8675 11.1161 17.6331C10.8817 17.3987 10.75 17.0807 10.75 16.7492C10.75 16.4177 10.8817 16.0998 11.1161 15.8654C11.3505 15.631 11.6685 15.4993 12 15.4993C12.3315 15.4993 12.6495 15.631 12.8839 15.8654C13.1183 16.0998 13.25 16.4177 13.25 16.7492V16.7492ZM10.135 8.96361C10.4 8.45964 11.083 7.99966 12 7.99966C13.283 7.99966 14 8.83462 14 9.49959C14 10.1646 13.283 10.9995 12 10.9995C11.7348 10.9995 11.4804 11.1049 11.2929 11.2924C11.1054 11.4799 11 11.7343 11 11.9995V12.9994C11 13.2646 11.1054 13.519 11.2929 13.7065C11.4804 13.894 11.7348 13.9994 12 13.9994C12.2652 13.9994 12.5196 13.894 12.7071 13.7065C12.8946 13.519 13 13.2646 13 12.9994V12.8864C14.632 12.5134 16 11.2465 16 9.49959C16 7.40369 14.03 5.99976 12 5.99976C10.457 5.99976 9.025 6.77472 8.364 8.03566C8.29924 8.15225 8.25845 8.28061 8.24404 8.4132C8.22963 8.54578 8.2419 8.67991 8.2801 8.80769C8.31831 8.93546 8.3817 9.05431 8.46653 9.15722C8.55136 9.26013 8.65592 9.34504 8.77405 9.40694C8.89219 9.46884 9.02152 9.50648 9.15442 9.51766C9.28732 9.52883 9.42112 9.5133 9.54793 9.47199C9.67475 9.43068 9.79201 9.36443 9.89284 9.27712C9.99366 9.18981 10.076 9.08322 10.135 8.96361V8.96361Z" fill="black"/>
</svg>
